<?xml version="1.0" encoding="UTF-8"?>
<svg version="1.1" xmlns="http://www.w3.org/2000/svg" width="512" height="512">
<path d="M0 0 C1.82630099 -0.00707159 3.65259612 -0.01582178 5.47888184 -0.02610779 C10.39987588 -0.0484577 15.3205462 -0.04569824 20.24157143 -0.03678632 C24.35747797 -0.03165335 28.4733249 -0.03898662 32.58922529 -0.04625839 C42.2939123 -0.06320732 51.99844183 -0.05973719 61.703125 -0.04296875 C71.71056938 -0.02600109 81.71757903 -0.04195694 91.72497606 -0.07419163 C100.33249653 -0.10086519 108.93988145 -0.1081711 117.5474391 -0.09967655 C122.68224225 -0.09474713 127.8167831 -0.09696582 132.95155334 -0.11746407 C137.77155787 -0.13578952 142.59093342 -0.12990112 147.41090393 -0.10526466 C149.17939946 -0.1002493 150.94794273 -0.10376533 152.71640015 -0.11641312 C155.1297345 -0.13230946 157.54098802 -0.11742869 159.95422363 -0.09474182 C160.65450825 -0.10657755 161.35479287 -0.11841328 162.07629824 -0.13060766 C165.88175645 -0.05786539 167.42930534 0.45164466 170.41408539 2.89347935 C172.77352539 5.83826569 173.91005677 8.29394313 175.16210938 11.85375977 C175.40067657 12.52239044 175.63924377 13.19102112 175.88504028 13.87991333 C176.78455903 16.42509619 177.65707471 18.97877936 178.52929688 21.53344727 C178.91420288 22.64844604 179.29910889 23.76344482 179.69567871 24.91223145 C182.47764089 32.97165746 185.22451906 41.04257256 187.95410156 49.11987305 C189.17414383 52.73018326 190.3993808 56.33870711 191.62598991 59.9467907 C192.57520734 62.74093266 193.52158687 65.5360293 194.46710587 68.33142471 C194.91833056 69.66422686 195.37047983 70.99671637 195.82357407 72.32888412 C196.4508908 74.1745665 197.07394377 76.02169643 197.69677734 77.86889648 C198.22922562 79.44198074 198.22922562 79.44198074 198.77243042 81.04684448 C199.52929688 83.53344727 199.52929688 83.53344727 199.52929688 85.53344727 C200.58082601 85.53068189 201.63235514 85.52791651 202.71574879 85.52506733 C228.32266586 85.4584163 253.92957165 85.40914511 279.5365572 85.37801075 C291.91999205 85.36255354 304.30336955 85.34148585 316.68676758 85.30712891 C327.48235701 85.27719156 338.27790488 85.25786394 349.07353467 85.25118178 C354.78771083 85.24727689 360.50176814 85.23812359 366.21590614 85.2162571 C371.59945317 85.19582352 376.9828329 85.18962736 382.36641502 85.19412422 C384.33718654 85.19330209 386.30796392 85.18737759 388.27870178 85.17583084 C406.70692488 85.07319711 422.37894354 87.75487891 436.27539062 101.04907227 C444.49765977 110.11209337 450.64195025 121.92688841 450.66351795 134.3148489 C450.6679758 135.5026339 450.67243364 136.6904189 450.67702657 137.91419739 C450.67675003 139.87363906 450.67675003 139.87363906 450.6764679 141.87266541 C450.67976768 143.27341058 450.68349349 144.67415481 450.68760937 146.07489783 C450.69762481 149.92870056 450.70134545 153.78248773 450.70399868 157.63630164 C450.7079032 161.79126308 450.71748157 165.9462122 450.72621155 170.10116577 C450.74597379 180.13894995 450.75604274 190.17673513 450.76493934 200.2145339 C450.76932341 204.94329652 450.77468998 209.67205803 450.77992821 214.40081978 C450.79694171 230.12422802 450.81143473 245.84763556 450.81867695 261.5710516 C450.8205868 265.65137165 450.82250714 269.73169169 450.82446289 273.81201172 C450.82494663 274.82613931 450.82543037 275.84026691 450.82592877 276.88512564 C450.8342247 293.30433439 450.85955369 309.72347018 450.89204357 326.14264708 C450.92513981 343.00601301 450.94312811 359.86934189 450.94632119 376.73274046 C450.94848412 386.19834228 450.95720074 395.66383776 450.98278236 405.12940788 C451.00452457 413.1929343 451.01252256 421.25632855 451.00281558 429.31988095 C450.9982808 433.43088854 451.00010882 437.54162366 451.01957703 441.65259361 C451.03728122 445.42381414 451.03615292 449.19456491 451.02067973 452.96579093 C451.01720298 454.96021751 451.03327574 456.95464942 451.05028421 458.9490065 C450.94276203 474.12653567 446.15961701 486.79652688 435.65429688 497.84594727 C428.45048838 504.60729535 420.95664398 508.63843516 411.52929688 511.53344727 C410.69485629 511.79975165 410.69485629 511.79975165 409.84355831 512.07143593 C406.57561781 512.72383653 403.33913308 512.68501651 400.02064514 512.68734741 C399.26121453 512.69172967 398.50178392 512.69611192 397.71934026 512.70062697 C395.17299838 512.71398851 392.62669109 512.72018776 390.08032227 512.72631836 C388.25535425 512.73422113 386.43038779 512.7424902 384.60542297 512.75109863 C378.61261482 512.7772888 372.61979976 512.79261888 366.62695312 512.80688477 C364.56417779 512.81224485 362.50140249 512.81762236 360.43862724 512.82301712 C351.86097983 512.84463749 343.28333429 512.86337612 334.70566654 512.87463951 C322.40821806 512.89089381 310.11108475 512.92411717 297.8137551 512.98104036 C289.16823252 513.01969841 280.52279442 513.03926704 271.87718767 513.04456007 C266.71202443 513.04821793 261.54719758 513.06028618 256.38212776 513.09266281 C251.52537247 513.12267224 246.6691584 513.12908081 241.81233025 513.11727905 C240.02930563 513.11705775 238.24625639 513.12540958 236.46331787 513.14293289 C234.02986717 513.16554956 231.59839185 513.1573664 229.16493225 513.14144897 C228.45850855 513.15533106 227.75208486 513.16921315 227.02425438 513.18351591 C223.24726067 513.12259105 221.64579985 512.62711883 218.66669369 510.23183632 C216.91227688 508.01694619 215.69111004 506.35283322 214.6953125 503.7512207 C214.40998657 503.02420959 214.12466064 502.29719849 213.83068848 501.54815674 C213.53529175 500.75439636 213.23989502 499.96063599 212.93554688 499.14282227 C212.60437866 498.2847699 212.27321045 497.42671753 211.93200684 496.54266357 C210.78181672 493.54541421 209.65460293 490.54012438 208.52929688 487.53344727 C207.62828488 485.14606627 206.72724171 482.75869705 205.82617188 480.37133789 C203.12316376 473.19219406 200.45020951 466.0019899 197.78161621 458.80999756 C196.50922221 455.382503 195.23396377 451.95607448 193.95898438 448.52954102 C191.47970206 441.86518577 189.00346311 435.19970377 186.52929688 428.53344727 C185.49322894 428.53105891 184.45716101 428.52867056 183.38969707 428.52620983 C158.15822835 428.46736669 132.92685476 428.39145405 107.69549084 428.29773235 C95.49369865 428.25280243 83.29193547 428.21338124 71.09008789 428.18701172 C60.452657 428.16400901 49.81531811 428.13058545 39.17796022 428.08474571 C33.54765962 428.06084428 27.91744998 428.04209527 22.28709984 428.03583336 C16.98228507 428.02976864 11.67770292 428.00971848 6.3729744 427.97917175 C4.43125463 427.97041378 2.48950444 427.96666428 0.54776573 427.9684391 C-17.7718582 427.97989194 -33.41142758 425.22488502 -47.21679688 412.01782227 C-55.44122386 402.95242267 -61.58711944 391.13505719 -61.60213089 378.7436657 C-61.60597203 377.5540306 -61.60981318 376.3643955 -61.61377072 375.13871086 C-61.61290424 373.83037005 -61.61203776 372.52202924 -61.61114502 371.17404175 C-61.61372884 369.7711587 -61.61674205 368.36827639 -61.62014842 366.96539509 C-61.62821989 363.10579826 -61.63000808 359.24622003 -61.63074589 355.38661575 C-61.63259622 351.22557832 -61.64014351 347.06455053 -61.6468811 342.90351868 C-61.6604666 333.80213602 -61.66648965 324.70075777 -61.67089176 315.59936666 C-61.67365415 309.91599655 -61.67789153 304.23262815 -61.68239594 298.54925919 C-61.69458952 282.81297602 -61.70488824 267.07669421 -61.70827103 251.34040642 C-61.70849059 250.33310709 -61.70871016 249.32580775 -61.70893638 248.2879842 C-61.70915466 247.27827393 -61.70937293 246.26856366 -61.70959783 245.22825611 C-61.71004129 243.18220003 -61.71048786 241.13614396 -61.7109375 239.09008789 C-61.71115893 238.07517336 -61.71138036 237.06025884 -61.7116085 236.01458932 C-61.71555544 219.57396874 -61.73300589 203.13339252 -61.75629702 186.69278906 C-61.78001794 169.81248713 -61.79247324 152.93220745 -61.79363894 136.05188859 C-61.79455536 126.57466665 -61.80029903 117.09750249 -61.81845856 107.62029648 C-61.83386961 99.5490129 -61.83897412 91.47780494 -61.83072045 83.40650944 C-61.82681734 79.28984412 -61.8277269 75.17333103 -61.8417778 71.05668449 C-61.85453721 67.28383645 -61.85330145 63.5112547 -61.84118709 59.73840691 C-61.83831216 57.73580864 -61.85015047 55.73320568 -61.86260915 53.73064411 C-61.82296399 46.47955061 -61.04066923 40.3272966 -58.47070312 33.53344727 C-57.97570313 32.17606445 -57.97570313 32.17606445 -57.47070312 30.79125977 C-51.69218659 18.46676746 -41.24050858 8.62557868 -28.72699738 3.38423252 C-19.06614245 0.09700368 -10.07474721 -0.04138507 0 0 Z " fill="#2196F2" transform="translate(61.470703125,-0.533447265625)"/>
<path d="M0 0 C26.66906682 -0.07013603 53.33811979 -0.12301073 80.00726032 -0.15543652 C92.39069518 -0.17089373 104.77407267 -0.19196141 117.1574707 -0.22631836 C127.95306013 -0.25625571 138.74860801 -0.27558333 149.54423779 -0.28226548 C155.25841396 -0.28617037 160.97247126 -0.29532368 166.68660927 -0.31719017 C172.0701563 -0.33762375 177.45353602 -0.3438199 182.83711815 -0.33932304 C184.80788966 -0.34014517 186.77866705 -0.34606968 188.74940491 -0.35761642 C207.177628 -0.46025016 222.84964667 2.22143164 236.74609375 15.515625 C244.9683629 24.57864611 251.11265338 36.39344115 251.13422108 48.78140163 C251.13867892 49.96918663 251.14313676 51.15697163 251.14772969 52.38075012 C251.14754533 53.68704457 251.14736097 54.99333901 251.14717102 56.33921814 C251.15047081 57.73996332 251.15419662 59.14070754 251.1583125 60.54145056 C251.16832793 64.3952533 251.17204857 68.24904046 251.17470181 72.10285437 C251.17860632 76.25781581 251.18818469 80.41276493 251.19691467 84.56771851 C251.21667692 94.60550268 251.22674587 104.64328786 251.23564246 114.68108663 C251.24002654 119.40984926 251.24539311 124.13861077 251.25063133 128.86737251 C251.26764484 144.59078075 251.28213785 160.3141883 251.28938007 176.03760433 C251.29128993 180.11792438 251.29321026 184.19824443 251.29516602 188.27856445 C251.29564976 189.29269205 251.2961335 190.30681964 251.2966319 191.35167838 C251.30492783 207.77088712 251.33025682 224.19002291 251.36274669 240.60919981 C251.39584294 257.47256574 251.41383123 274.33589463 251.41702431 291.1992932 C251.41918724 300.66489501 251.42790387 310.13039049 251.45348549 319.59596062 C251.4752277 327.65948703 251.48322569 335.72288129 251.47351871 343.78643369 C251.46898393 347.89744128 251.47081194 352.0081764 251.49028015 356.11914635 C251.50798434 359.89036688 251.50685604 363.66111765 251.49138286 367.43234367 C251.4879061 369.42677024 251.50397887 371.42120216 251.52098733 373.41555923 C251.41346515 388.59308841 246.63032014 401.26307961 236.125 412.3125 C228.92119151 419.07384809 221.4273471 423.1049879 212 426 C211.43813618 426.1782302 210.87627235 426.3564604 210.29738235 426.54009151 C207.09607142 427.1809557 204.02622322 427.12255368 200.76141357 427.12025452 C199.66597854 427.12153615 199.66597854 427.12153615 198.54841352 427.12284368 C196.10093563 427.12449102 193.65352626 427.11898931 191.20605469 427.11352539 C189.45179242 427.11324333 187.69753003 427.11340162 185.94326782 427.1139679 C181.1791835 427.11425514 176.41512428 427.10837013 171.6510458 427.10139394 C166.67290308 427.09514833 161.6947598 427.09455564 156.71661377 427.09336853 C147.28901093 427.09025879 137.86141966 427.08205019 128.43382192 427.07201904 C117.70116588 427.06084685 106.9685093 427.05534466 96.2358489 427.05032361 C74.15722614 427.03986729 52.0786138 427.02227473 30 427 C31.17127441 426.07779663 31.17127441 426.07779663 32.36621094 425.13696289 C38.48249654 420.17442601 43.3887911 413.79969036 48.3125 407.6875 C52.20320708 402.87334412 56.33000466 398.35075666 60.55786133 393.83666992 C63.67524726 390.48935757 66.63559167 387.07013212 69.5 383.5 C73.3205849 378.73811158 77.39067803 374.28564406 81.56079102 369.83374023 C84.65780084 366.508452 87.59621684 363.11280061 90.4375 359.5625 C94.57735995 354.39717016 99.02422986 349.57403865 103.57202148 344.76977539 C104.10255127 344.20766357 104.63308105 343.64555176 105.1796875 343.06640625 C105.65132324 342.57084229 106.12295898 342.07527832 106.60888672 341.56469727 C110.56427381 337.11575451 111.49129396 334.65634935 111.30020142 328.70950317 C110.80102939 324.20416735 109.39182279 320.16734574 107.82421875 315.93359375 C107.4983931 315.01465836 107.17256744 314.09572296 106.83686829 313.14894104 C105.80173101 310.23963447 104.74525379 307.33865015 103.6875 304.4375 C102.98876979 302.48815456 102.29149144 300.53828807 101.59570312 298.58789062 C100.31204826 294.99200284 99.01858538 291.39992509 97.7175293 287.81030273 C97.14343555 286.20743494 96.57090316 284.60400698 96 283 C95.70654694 282.18226105 95.41309387 281.36452209 95.11074829 280.52200317 C94.83548309 279.73236176 94.5602179 278.94272034 94.27661133 278.12915039 C94.03042557 277.4298793 93.78423981 276.73060822 93.53059387 276.01014709 C93 274 93 274 93 270 C95.08984375 267.95703125 95.08984375 267.95703125 97.9375 265.8125 C103.3834276 261.56580516 108.22862431 256.98343683 113 252 C118.13273223 256.28749207 122.89968705 260.79083549 127.5859375 265.55859375 C129.02590289 267.01120529 130.4660115 268.46367487 131.90625 269.91601562 C134.14165464 272.17617639 136.37541112 274.43791728 138.60644531 276.70239258 C140.78257421 278.9089988 142.9651092 281.10911384 145.1484375 283.30859375 C145.80186127 283.97547714 146.45528503 284.64236053 147.12850952 285.32945251 C154.7586705 293.80188785 154.7586705 293.80188785 164.57089233 298.21604919 C167.91736695 297.90226041 170.81502684 297.06165772 174 296 C174.81627212 294.34481046 174.81627212 294.34481046 175 292 C175.165 290.7625 175.33 289.525 175.5 288.25 C175.41453369 283.62627261 173.39535591 281.34510542 170.22607422 278.14526367 C168.10676784 276.10289197 165.93219553 274.15816827 163.71875 272.21875 C156.31838491 265.5850894 149.37812929 258.48476317 142.375 251.4375 C140.97549577 250.03296858 139.57575787 248.62866994 138.17578125 247.22460938 C134.78115715 243.81908122 131.38970094 240.41042818 128 237 C129.59682413 232.75071068 131.57046909 229.79135659 134.4375 226.25 C152.19185619 203.69865937 166.30155206 177.35028257 175 150 C175.72590332 149.9906543 176.45180664 149.98130859 177.19970703 149.97167969 C180.50881214 149.91778719 183.81653238 149.83417561 187.125 149.75 C188.83816406 149.72873047 188.83816406 149.72873047 190.5859375 149.70703125 C196.92726448 149.52269035 201.23376352 149.38691662 206 145 C207.60847182 141.78305636 207.61309149 138.47862778 207 135 C204.82425584 132.30894802 203.08934144 130.54467072 200 129 C197.55977066 128.87796382 195.14613824 128.81439143 192.70458984 128.79467773 C191.95327286 128.78477814 191.20195587 128.77487854 190.4278717 128.76467896 C187.93892594 128.73303477 185.44996107 128.70829505 182.9609375 128.68359375 C181.23743182 128.66302674 179.51393121 128.64203033 177.79043579 128.62062073 C173.2497976 128.56537393 168.7091137 128.51597617 164.168396 128.46777344 C159.53670168 128.41757744 154.90507391 128.36188146 150.2734375 128.30664062 C141.18234849 128.19902716 132.09120175 128.09758928 123 128 C122.97421875 127.04738281 122.9484375 126.09476562 122.921875 125.11328125 C122.86515625 123.85902344 122.8084375 122.60476562 122.75 121.3125 C122.70359375 120.07113281 122.6571875 118.82976562 122.609375 117.55078125 C121.92262238 113.54912655 120.8417716 111.84442777 118 109 C114.00903769 107.57924598 110.07030749 107.73242313 106 108.75 C103.67736927 109.90642312 103.67736927 109.90642312 103 113 C102.67 117.95 102.34 122.9 102 128 C73.29 128.495 73.29 128.495 44 129 C39.5009844 117.752461 39.5009844 117.752461 37.85620117 112.85571289 C37.48396423 111.75249191 37.11172729 110.64927094 36.72821045 109.51261902 C36.33708069 108.3444313 35.94595093 107.17624359 35.54296875 105.97265625 C34.89903032 104.06220732 34.2550878 102.15175977 33.61096764 100.24137211 C32.93247009 98.22762043 32.25523441 96.21344833 31.57833862 94.19915771 C29.23174177 87.21743339 26.87448651 80.23930731 24.515625 73.26171875 C24.280446 72.56586922 24.04526699 71.87001968 23.80296135 71.1530838 C18.56065096 55.64816358 13.18431733 40.19127064 7.7591095 24.74946594 C0 2.65190187 0 2.65190187 0 0 Z " fill="#EBEEF0" transform="translate(261,85)"/>
<path d="M0 0 C3.8525571 2.7518265 3.8525571 2.7518265 5 6 C5.18920898 9.43481445 5.18920898 9.43481445 5.12109375 13.23828125 C5.10361084 14.50325439 5.08612793 15.76822754 5.06811523 17.0715332 C5.03439819 18.52112427 5.03439819 18.52112427 5 20 C6.42700729 19.98667633 6.42700729 19.98667633 7.88284302 19.9730835 C16.85775454 19.8919208 25.83259139 19.83199779 34.80778694 19.79275131 C39.42181851 19.77189574 44.03555329 19.74361538 48.64941406 19.69824219 C53.10387963 19.65471172 57.55806012 19.63084762 62.01272202 19.62049103 C63.71037151 19.61311255 65.40800579 19.59870394 67.1055336 19.57707977 C69.48752543 19.5479492 71.86834636 19.5440479 74.25048828 19.54589844 C75.2981411 19.52432678 75.2981411 19.52432678 76.36695862 19.50231934 C81.35608021 19.54412986 84.16668866 20.86571234 88 24 C90.46141247 27.6921187 90.68650207 30.71354805 90 35 C87.83291447 38.56021195 85.84656211 40.48011006 82 42 C79.25097656 42.22705078 79.25097656 42.22705078 76.140625 42.1953125 C75.02558594 42.18886719 73.91054688 42.18242187 72.76171875 42.17578125 C71.02341797 42.15064453 71.02341797 42.15064453 69.25 42.125 C68.07566406 42.11597656 66.90132812 42.10695312 65.69140625 42.09765625 C62.79406464 42.07410063 59.89713559 42.04120652 57 42 C56.82911865 42.68022217 56.6582373 43.36044434 56.48217773 44.0612793 C54.7921616 50.54836278 52.73228222 56.66671421 50.0625 62.8125 C49.67481445 63.70630371 49.28712891 64.60010742 48.88769531 65.52099609 C39.01404696 87.78518117 25.84877375 107.77716886 11 127 C12.35631828 130.02874459 13.87646766 132.1251941 16.22119141 134.46411133 C16.87592438 135.12192093 17.53065735 135.77973053 18.20523071 136.45747375 C18.9135202 137.15857773 19.62180969 137.8596817 20.3515625 138.58203125 C21.08442474 139.31443527 21.81728699 140.04683929 22.57235718 140.80143738 C24.12513829 142.35119847 25.68034803 143.89852945 27.23779297 145.44360352 C29.60043828 147.78812668 31.95511735 150.14041748 34.30859375 152.49414062 C35.82244833 154.00307417 37.33675717 155.51155215 38.8515625 157.01953125 C39.89577866 158.06207817 39.89577866 158.06207817 40.96109009 159.12568665 C44.92041353 163.04751279 48.97080249 166.77926711 53.24349976 170.35868835 C55.65017968 172.60754189 57.76341337 174.69750157 58.36328125 178 C58.17721983 185.32795748 58.17721983 185.32795748 56 188 C51.85860709 190.63543185 48.86809887 191.44899007 44 191 C32.53152389 184.57412573 22.96854546 172.18648243 13.8125 162.9375 C12.08054698 161.19549727 10.34812886 159.45395682 8.61523438 157.71289062 C4.40477708 153.48057739 0.20010518 149.24258546 -4 145 C-5.10060596 145.93760803 -6.20037569 146.8761977 -7.29980469 147.81518555 C-7.91233093 148.33775436 -8.52485718 148.86032318 -9.15594482 149.39872742 C-12.46151798 152.26909905 -15.63692011 155.28209046 -18.8125 158.29492188 C-21.20791294 160.52673058 -22.85302528 161.95100843 -26 163 C-27.20235238 159.73443413 -28.38427591 156.46184085 -29.5625 153.1875 C-29.90474609 152.25873047 -30.24699219 151.32996094 -30.59960938 150.37304688 C-30.91865234 149.48037109 -31.23769531 148.58769531 -31.56640625 147.66796875 C-32.01415405 146.43469849 -32.01415405 146.43469849 -32.47094727 145.17651367 C-33 143 -33 143 -32 140 C-30.29296875 138.3515625 -30.29296875 138.3515625 -28.1875 136.625 C-25.0088179 134.01287474 -22.50092691 131.27087519 -20 128 C-20.65484375 127.25878906 -21.3096875 126.51757812 -21.984375 125.75390625 C-47.75274194 96.18091011 -47.75274194 96.18091011 -48.5625 83.6875 C-47.93342611 79.56357115 -46.96519008 77.87797861 -44 75 C-40.33555308 73.16777654 -35.83604176 73.44212577 -31.96875 74.6171875 C-29.06911553 76.65383552 -28.00843376 79.18812351 -26.375 82.3125 C-20.62247271 92.90991222 -13.1159585 102.10469449 -5 111 C6.15340814 98.46649843 14.5500255 84.08849401 22.375 69.3125 C22.85042236 68.42401367 23.32584473 67.53552734 23.81567383 66.62011719 C27.99962458 58.54066304 30.73674024 50.70202602 34 42 C0.67 42 -32.66 42 -67 42 C-74 23 -74 23 -74 21 C-71.40672157 19.70336078 -69.53591932 19.87996431 -66.63232422 19.88647461 C-65.51131317 19.88655014 -64.39030212 19.88662567 -63.23532104 19.88670349 C-62.02071198 19.89186478 -60.80610291 19.89702606 -59.5546875 19.90234375 C-58.31453888 19.9037587 -57.07439026 19.90517365 -55.79666138 19.90663147 C-52.49881867 19.91128904 -49.20102454 19.92027561 -45.90319824 19.93133545 C-42.53833613 19.94156269 -39.17346692 19.94613191 -35.80859375 19.95117188 C-29.20571007 19.96221731 -22.60285901 19.97896753 -16 20 C-16.08701172 18.46279297 -16.08701172 18.46279297 -16.17578125 16.89453125 C-16.22269957 15.53389989 -16.26819752 14.17321904 -16.3125 12.8125 C-16.35439453 12.13896484 -16.39628906 11.46542969 -16.43945312 10.77148438 C-16.53676648 6.78163682 -16.16454409 5.2010498 -13.60546875 2.07421875 C-8.99699028 -1.59459994 -5.61139443 -1.48992197 0 0 Z " fill="#475C66" transform="translate(379,193)"/>
<path d="M0 0 C3.01333813 1.02727436 4.45128991 1.97022627 5.95959473 4.80088806 C8.48374526 10.62707587 10.72262657 16.52007793 12.84375 22.50390625 C13.20544785 23.51535202 13.56714569 24.52679779 13.93980408 25.56889343 C15.12977322 28.89894989 16.31486392 32.23072078 17.5 35.5625 C18.3395943 37.91450614 19.17952571 40.26639197 20.01977539 42.61816406 C22.00884286 48.18755297 23.99496227 53.75798701 25.97949505 59.32899284 C29.27435434 68.57800325 32.57473785 77.82504231 35.87597656 87.07177734 C37.57471643 91.83023345 39.27039402 96.58976482 40.96386719 101.35009766 C44.55615204 111.43808034 48.16551573 121.51621586 51.92578125 131.54296875 C52.50272516 133.0901545 53.07963115 134.63735439 53.65649414 136.18457031 C54.67181527 138.90538796 55.7052445 141.61818132 56.75170898 144.32714844 C59.19203244 150.84725434 60.73883183 156.02372249 60 163 C57.95761545 166.42828835 55.89591831 168.88688048 52 170 C47.86072543 169.92474046 45.69604685 169.57164241 42.47021484 166.92236328 C39.66375811 163.60221235 38.28062657 160.35995612 36.9140625 156.3046875 C36.65113907 155.56315933 36.38821564 154.82163116 36.11732483 154.05763245 C35.27317453 151.66787814 34.44893667 149.27178964 33.625 146.875 C33.05065569 145.23656185 32.47488755 143.59862213 31.89770508 141.96118164 C30.76871734 138.75575395 29.64582781 135.54829158 28.52685547 132.33935547 C26.39602216 126.25260609 24.13321227 120.2157486 21.82861328 114.19287109 C20.74314691 111.30180694 20 109.11850874 20 106 C4.49 106 -11.02 106 -27 106 C-27.99 109.3 -28.98 112.6 -30 116 C-30.58921193 117.82488783 -31.18861364 119.64657738 -31.8059082 121.4621582 C-32.12666824 122.40626053 -32.44742828 123.35036285 -32.77790833 124.32307434 C-34.22916504 128.54785831 -35.69032747 132.76910534 -37.15991211 136.98754883 C-37.93050256 139.21052519 -38.693489 141.43615156 -39.44897461 143.66430664 C-40.54818711 146.90385277 -41.67175363 150.13402369 -42.80078125 153.36328125 C-43.13225662 154.35604568 -43.46373199 155.34881012 -43.80525208 156.37165833 C-45.89738045 162.25328299 -47.72484532 165.55765446 -53 169 C-56.06099434 169.89117557 -57.70866849 169.47019022 -61 169 C-63.8100346 167.20636089 -65.50940468 165.98119065 -67 163 C-67.52453891 155.61719472 -66.04566527 150.06498389 -63.51171875 143.171875 C-63.14171753 142.13025711 -62.77171631 141.08863922 -62.39050293 140.01545715 C-61.16955062 136.58868402 -59.92866296 133.16949918 -58.6875 129.75 C-57.82401058 127.33891335 -56.96180782 124.92736555 -56.10083008 122.51538086 C-54.30961884 117.50521007 -52.51039035 112.49804543 -50.703125 107.49365234 C-48.12021971 100.34102617 -45.55764495 93.18122425 -43 86.01953125 C-39.83655549 77.16527469 -36.66132077 68.31536121 -33.4765625 59.46875 C-30.91197056 52.34449974 -28.36246016 45.21536238 -25.8434906 38.07484436 C-24.55375004 34.4188378 -23.25851237 30.76478926 -21.96304321 27.11080933 C-21.37118924 25.4360124 -20.78221325 23.76019511 -20.19638062 22.08328247 C-19.40000358 19.80414513 -18.59369611 17.52875164 -17.78515625 15.25390625 C-17.55996307 14.600271 -17.3347699 13.94663574 -17.10275269 13.27319336 C-13.86766911 4.25872524 -10.13017353 -1.19178512 0 0 Z " fill="#F6F8F9" transform="translate(153,129)"/>
<path d="M0 0 C-1.50006391 3.44779086 -3.50409262 5.82360533 -6.0625 8.5625 C-9.27291085 12.05918953 -12.34456239 15.60799393 -15.3125 19.3125 C-19.20320708 24.12665588 -23.33000466 28.64924334 -27.55786133 33.16333008 C-30.67524726 36.51064243 -33.63559167 39.92986788 -36.5 43.5 C-39.84302158 47.66666457 -43.35116931 51.60417858 -47 55.5 C-51.46997673 60.27331162 -55.66352418 65.19191251 -59.76953125 70.28515625 C-62.22207424 73.27030052 -64.73708074 76.18330847 -67.3125 79.0625 C-68.11300781 79.96097656 -68.91351563 80.85945313 -69.73828125 81.78515625 C-73.61960698 85.58604 -76.47925465 86.22436758 -81.90234375 86.55859375 C-85.28021117 85.65908716 -86.73061025 83.61611098 -89 81 C-90.46233163 78.29754962 -91.52346672 75.48232029 -92.59375 72.60546875 C-92.92491821 71.74720993 -93.25608643 70.88895111 -93.59729004 70.00468445 C-94.74701712 67.00878862 -95.87420145 64.00496605 -97 61 C-97.90085207 58.61792959 -98.80190328 56.23593449 -99.703125 53.85400391 C-102.40753301 46.68944538 -105.07974238 39.5130403 -107.74768066 32.33483887 C-108.76614194 29.5970735 -109.7876604 26.86045287 -110.80916595 24.12382221 C-111.79519988 21.4812965 -112.77961884 18.83817161 -113.76350403 16.1948452 C-114.45854089 14.32819963 -115.15473792 12.46198618 -115.85095215 10.59577942 C-116.47290466 8.92088692 -116.47290466 8.92088692 -117.10742188 7.2121582 C-117.47411987 6.22657425 -117.84081787 5.2409903 -118.21862793 4.22554016 C-119 2 -119 2 -119 1 C-103.77963664 0.86951247 -88.55927244 0.73912226 -73.33890724 0.60884857 C-66.27216172 0.54836082 -59.20541648 0.48784097 -52.13867188 0.42724609 C-45.32413167 0.36881388 -38.50959072 0.31047039 -31.69504929 0.25218201 C-29.08982696 0.22988346 -26.4846049 0.20755474 -23.87938309 0.18519592 C-20.24201778 0.15398399 -16.60465159 0.12287752 -12.96728516 0.09179688 C-11.8804393 0.08244614 -10.79359344 0.0730954 -9.67381287 0.0634613 C-8.68660751 0.05504715 -7.69940216 0.046633 -6.68228149 0.03796387 C-5.39084952 0.02690235 -5.39084952 0.02690235 -4.07332802 0.01561737 C-2.71558055 0.00539012 -1.35778599 0 0 0 Z " fill="#1976D2" transform="translate(367,426)"/>
<path d="M0 0 C33.33 0 66.66 0 101 0 C97.47561946 21.14628322 83.22968047 41.8031069 71 59 C70.57074219 59.60424805 70.14148438 60.20849609 69.69921875 60.83105469 C67.49943253 63.91250126 65.26949448 66.96955737 63 70 C58.01404407 66.1686865 54.32979536 61.95439653 50.5625 56.9375 C49.99700439 56.19105225 49.43150879 55.44460449 48.84887695 54.67553711 C37 38.80841933 37 38.80841933 37 34 C33.10894045 32.70298015 29.0403431 32.31194157 25 33 C21.83333333 34.83333333 21.83333333 34.83333333 20 38 C18.35561659 47.70186214 24.254119 55.1966033 29.625 62.8125 C33.61311098 68.35906075 37.90568544 73.61211797 42.42041016 78.73754883 C44.71171012 81.35743955 46.64339252 83.77805723 48 87 C46.23519919 88.8187336 44.46369235 90.62994991 42.6875 92.4375 C42.18798828 92.95376953 41.68847656 93.47003906 41.17382812 94.00195312 C38.80130365 96.40590176 37.25029621 97.91656793 34 99 C28.26002392 84.30251929 23.29868065 69.33274493 18.26123047 54.38458252 C17.33513209 51.63824135 16.40674625 48.89267625 15.47822666 46.1471529 C10.28048502 30.77740484 5.13080224 15.39240673 0 0 Z " fill="#EAEEF0" transform="translate(312,235)"/>
<path d="M0 0 C2.87414319 2.87414319 3.73181821 6.41696133 5.0390625 10.18359375 C5.32478119 10.9949025 5.61049988 11.80621124 5.90487671 12.6421051 C6.50774595 14.3584849 7.10773938 16.0758771 7.70507812 17.79418945 C8.62105521 20.42616502 9.54810454 23.05404553 10.4765625 25.68164062 C11.0605631 27.34872473 11.64391818 29.01603514 12.2265625 30.68359375 C12.50464752 31.47116562 12.78273254 32.25873749 13.06924438 33.07017517 C14.13816421 36.16172134 15 38.70430752 15 42 C5.1 42 -4.8 42 -15 42 C-1.6 1.6 -1.6 1.6 0 0 Z " fill="#2698F3" transform="translate(149,171)"/>
</svg>
